<svg xmlns="http://www.w3.org/2000/svg" width="82.595" height="59.458" viewBox="0 0 82.595 59.458">
  <g id="Groupe_211" data-name="Groupe 211" transform="translate(-117 -276)">
    <g id="Groupe_12" data-name="Groupe 12" transform="translate(136.687 285.916)" opacity="0.923">
      <path id="Icon_awesome-calendar-alt" data-name="Icon awesome-calendar-alt" d="M188.984,357.119a4.643,4.643,0,0,0,4.641,4.641h34.033a4.642,4.642,0,0,0,4.641-4.641v-26.3H188.984Zm30.94-18.95a1.163,1.163,0,0,1,1.16-1.16h3.867a1.163,1.163,0,0,1,1.16,1.16v3.867a1.164,1.164,0,0,1-1.16,1.16h-3.868a1.164,1.164,0,0,1-1.16-1.16Zm0,12.375a1.163,1.163,0,0,1,1.16-1.16h3.867a1.163,1.163,0,0,1,1.16,1.16v3.867a1.164,1.164,0,0,1-1.16,1.16h-3.868a1.164,1.164,0,0,1-1.16-1.16Zm-12.375-12.375a1.163,1.163,0,0,1,1.16-1.16h3.867a1.163,1.163,0,0,1,1.16,1.16v3.867a1.164,1.164,0,0,1-1.16,1.16h-3.867a1.164,1.164,0,0,1-1.161-1.16Zm0,12.375a1.163,1.163,0,0,1,1.16-1.16h3.867a1.163,1.163,0,0,1,1.16,1.16v3.867a1.164,1.164,0,0,1-1.16,1.16h-3.867a1.164,1.164,0,0,1-1.161-1.16Zm-12.375-12.375a1.163,1.163,0,0,1,1.16-1.16H200.2a1.164,1.164,0,0,1,1.159,1.16v3.867a1.164,1.164,0,0,1-1.16,1.16h-3.867a1.164,1.164,0,0,1-1.161-1.16Zm0,12.375a1.163,1.163,0,0,1,1.16-1.16H200.2a1.163,1.163,0,0,1,1.159,1.162v3.867a1.164,1.164,0,0,1-1.16,1.16h-3.867a1.164,1.164,0,0,1-1.16-1.16Zm32.484-32.1h-4.641V313.8a1.552,1.552,0,0,0-1.547-1.547h-3.094a1.551,1.551,0,0,0-1.547,1.547v4.64H204.455V313.8a1.551,1.551,0,0,0-1.548-1.547h-3.094a1.552,1.552,0,0,0-1.547,1.547v4.64h-4.641a4.642,4.642,0,0,0-4.641,4.641v4.641H232.3v-4.641a4.642,4.642,0,0,0-4.641-4.641Z" transform="translate(-188.984 -312.257)" fill="#fff"/>
      <path id="Tracé_7" data-name="Tracé 7" d="M188.985,368.819" transform="translate(-188.985 -353.35)" fill="#fff"/>
      <circle id="Ellipse_16" data-name="Ellipse 16" cx="6.663" cy="6.663" r="6.663" transform="translate(33.907 2.194)" fill="#962b2b"/>
      <g id="Groupe_11" data-name="Groupe 11" transform="translate(38.776 4.696)">
        <path id="Tracé_8" data-name="Tracé 8" d="M332.781,337.4a.392.392,0,0,1-.281-.112.379.379,0,0,1-.117-.285v-6.623l-1.019.356a.5.5,0,0,1-.2.051.388.388,0,0,1-.285-.112.373.373,0,0,1-.112-.275.453.453,0,0,1,.055-.224.344.344,0,0,1,.2-.153l1.569-.54a.983.983,0,0,1,.107-.036.375.375,0,0,1,.377.1.4.4,0,0,1,.107.28V337a.383.383,0,0,1-.368.4h-.028Z" transform="translate(-330.763 -329.426)" fill="#fff"/>
      </g>
    </g>
    <path id="Tracé_7-2" data-name="Tracé 7" d="M158.3,276a41.344,41.344,0,0,1,41.3,41.3,40.819,40.819,0,0,1-3.9,17.531,1.1,1.1,0,0,1-1.485.512h0a1.09,1.09,0,0,1-.5-1.434,38.654,38.654,0,0,0,3.692-16.609,39.11,39.11,0,0,0-78.22,0,38.654,38.654,0,0,0,3.692,16.609,1.09,1.09,0,0,1-.5,1.434h0a1.1,1.1,0,0,1-1.485-.512A40.819,40.819,0,0,1,117,317.3,41.344,41.344,0,0,1,158.3,276" transform="translate(0)" fill="#fff"/>
  </g>
</svg>
