<svg xmlns="http://www.w3.org/2000/svg" width="89.034" height="62.058" viewBox="0 0 89.034 62.058">
  <g id="Groupe_65" data-name="Groupe 65" transform="translate(-521.999 -90)">
    <path id="Tracé_44" data-name="Tracé 44" d="M597.832,102.907A44.2,44.2,0,0,0,566.519,90c-.14,0-.279,0-.421,0A44.681,44.681,0,0,0,522,134.348a44.1,44.1,0,0,0,3.392,17.207,1.483,1.483,0,0,0,.953-.623,1.462,1.462,0,0,0,.169-1.368,42.767,42.767,0,0,1,40-57.783h.273a42.911,42.911,0,0,1,42.466,42.386,42.45,42.45,0,0,1-2.739,15.409,1.461,1.461,0,0,0,.169,1.359,1.476,1.476,0,0,0,.959.623,44.463,44.463,0,0,0-9.808-48.651Z" transform="translate(0)"/>
    <g id="Groupe_64" data-name="Groupe 64" transform="translate(521.999 90)">
      <path id="Tracé_45" data-name="Tracé 45" d="M597.832,102.907A44.2,44.2,0,0,0,566.519,90c-.14,0-.279,0-.421,0A44.681,44.681,0,0,0,522,134.348a44.1,44.1,0,0,0,3.392,17.207,1.483,1.483,0,0,0,.953-.623,1.462,1.462,0,0,0,.169-1.368,42.767,42.767,0,0,1,40-57.783h.273a42.911,42.911,0,0,1,42.466,42.386,42.45,42.45,0,0,1-2.739,15.409,1.461,1.461,0,0,0,.169,1.359,1.476,1.476,0,0,0,.959.623,44.463,44.463,0,0,0-9.808-48.651Z" transform="translate(-521.999 -90)" fill="#fff"/>
    </g>
    <g id="Groupe_33" data-name="Groupe 33" transform="translate(549.247 102.003)">
      <path id="Soustraction_8" data-name="Soustraction 8" d="M4.643,49.555H4.638A4.638,4.638,0,0,1,0,44.909V4.633A4.888,4.888,0,0,1,.4,2.65,4.259,4.259,0,0,1,1.445,1.2,4.552,4.552,0,0,1,2.929.3a4.89,4.89,0,0,1,1.7-.3A4.665,4.665,0,0,1,7.007.636L41.078,20.778a4.639,4.639,0,0,1,0,8L7.007,48.907A4.639,4.639,0,0,1,4.643,49.555Zm8.191-16.467a.635.635,0,0,0-.634.635v.634a.634.634,0,0,0,.634.634h6.34a.634.634,0,0,0,.634-.634v-.634a.634.634,0,0,0-.634-.634H16.955V31.751a6.974,6.974,0,0,0,6.022-6.9v-1.9a.635.635,0,0,0-.634-.635h-.634a.635.635,0,0,0-.634.635v1.9A5.073,5.073,0,0,1,16,29.918h-.007c-.162,0-.329-.008-.5-.024a5.227,5.227,0,0,1-4.564-5.274V22.945a.635.635,0,0,0-.635-.635H9.664a.635.635,0,0,0-.634.635v1.591a7.187,7.187,0,0,0,6.023,7.2v1.352ZM16,14.7a3.8,3.8,0,0,0-3.8,3.8v6.339a3.8,3.8,0,1,0,7.608,0H16.427c-.233,0-.423-.142-.423-.317V23.9c0-.175.19-.317.423-.317h3.381V22.31H16.427c-.233,0-.423-.142-.423-.316V21.36c0-.174.19-.316.423-.316h3.381V19.775H16.427c-.233,0-.423-.142-.423-.317v-.634c0-.175.19-.317.423-.317h3.381A3.8,3.8,0,0,0,16,14.7Z" transform="translate(0 0)" fill="#fff0e5" stroke="rgba(0,0,0,0)" stroke-miterlimit="10" stroke-width="1"/>
    </g>
  </g>
</svg>
