<svg xmlns="http://www.w3.org/2000/svg" width="98.737" height="80.769" viewBox="0 0 98.737 80.769">
  <g id="Groupe_32" data-name="Groupe 32" transform="translate(2.854 15.372)">
    <path id="Icon_awesome-user-friends" data-name="Icon awesome-user-friends" d="M703.62,344.249a11.227,11.227,0,1,0-.012,0Zm7.7,3.211h-.832a15.509,15.509,0,0,1-13.742,0h-.831a11.558,11.558,0,0,0-11.554,11.552V361.9a4.816,4.816,0,0,0,4.815,4.817h28.886a4.817,4.817,0,0,0,4.815-4.817v-2.886a11.558,11.558,0,0,0-11.554-11.554Zm21.183-3.211a9.629,9.629,0,1,0-9.628-9.629h0a9.63,9.63,0,0,0,9.629,9.629Zm4.815,3.211h-.381a12.645,12.645,0,0,1-8.866,0h-.381A11.142,11.142,0,0,0,722.105,349a14.681,14.681,0,0,1,3.982,10.012v3.852c0,.221-.05.431-.06.642H743.74a4.816,4.816,0,0,0,4.815-4.814,11.227,11.227,0,0,0-11.218-11.237h-.016Z" transform="translate(-672.321 -317.179)" fill="#fff0e5"/>
    <g id="_" data-name=" " transform="translate(26.42 8.727)" style="isolation: isolate">
      <g id="Groupe_7" data-name="Groupe 7" style="isolation: isolate">
        <path id="Tracé_4" data-name="Tracé 4" d="M716.4,331.2a4.742,4.742,0,0,1,2.62-.686,5.642,5.642,0,0,1,3.392.976,3.338,3.338,0,0,1,1.351,2.891,3.267,3.267,0,0,1-.586,1.979,6.749,6.749,0,0,1-1.315,1.247l-.64.5a1.944,1.944,0,0,0-.694.948c-.012.037-.022.077-.032.12a1.227,1.227,0,0,1-1.2.946h0a1.23,1.23,0,0,1-1.222-1.4,3.29,3.29,0,0,1,.173-.708,3.722,3.722,0,0,1,1.207-1.342l.658-.515a2.32,2.32,0,0,0,.523-.533,1.823,1.823,0,0,0,.36-1.093,2.113,2.113,0,0,0-.4-1.251,1.68,1.68,0,0,0-1.464-.565,1.613,1.613,0,0,0-1.483.7,3.01,3.01,0,0,0-.281.57,1.271,1.271,0,0,1-1.18.876h-.141a1.238,1.238,0,0,1-1.177-1.615A3.647,3.647,0,0,1,716.4,331.2Zm2.732,10.154h.236a1.233,1.233,0,0,1,1.233,1.233v.145a1.233,1.233,0,0,1-1.233,1.233h-.236a1.233,1.233,0,0,1-1.232-1.233v-.145A1.233,1.233,0,0,1,719.129,341.356Z" transform="translate(-714.808 -330.516)" fill="#b2927b"/>
      </g>
    </g>
    <g id="_2" data-name=" " transform="translate(55.699 11.561)" style="isolation: isolate">
      <g id="Groupe_8" data-name="Groupe 8" style="isolation: isolate">
        <path id="Tracé_5" data-name="Tracé 5" d="M778.4,337.2a4.741,4.741,0,0,1,2.62-.686,5.642,5.642,0,0,1,3.392.976,3.338,3.338,0,0,1,1.351,2.891,3.266,3.266,0,0,1-.586,1.979,6.746,6.746,0,0,1-1.315,1.247l-.639.5a1.945,1.945,0,0,0-.694.948c-.012.037-.022.077-.032.12a1.227,1.227,0,0,1-1.2.946h0a1.229,1.229,0,0,1-1.222-1.4,3.3,3.3,0,0,1,.173-.708,3.723,3.723,0,0,1,1.207-1.342l.658-.515a2.323,2.323,0,0,0,.523-.533,1.823,1.823,0,0,0,.36-1.093,2.113,2.113,0,0,0-.4-1.251,1.681,1.681,0,0,0-1.464-.565,1.614,1.614,0,0,0-1.483.7,3.005,3.005,0,0,0-.281.57,1.272,1.272,0,0,1-1.18.876h-.141a1.238,1.238,0,0,1-1.177-1.615A3.646,3.646,0,0,1,778.4,337.2Zm2.732,10.154h.236a1.233,1.233,0,0,1,1.233,1.233v.145a1.233,1.233,0,0,1-1.233,1.233h-.236a1.233,1.233,0,0,1-1.232-1.233v-.145A1.233,1.233,0,0,1,781.129,347.356Z" transform="translate(-776.808 -336.516)" fill="#b2927b"/>
      </g>
    </g>
    <path id="Tracé_6" data-name="Tracé 6" d="M42.745.039A44.611,44.611,0,0,0,6.4,67.64h0a7.977,7.977,0,0,0-.08-6.293,41.794,41.794,0,1,1,80.1-16.719q0,1.868-.163,3.695a2.141,2.141,0,0,0,2.564,2.295l.031-.006A44.638,44.638,0,0,0,42.745.039Z" transform="translate(7.727 -15.372) rotate(9)" fill="#fff"/>
  </g>
</svg>
