<svg xmlns="http://www.w3.org/2000/svg" width="141.192" height="242.352" viewBox="0 0 141.192 242.352">
  <g id="Groupe_43" data-name="Groupe 43" transform="translate(-1209.646 -166.12)">
    <path id="Tracé_21" data-name="Tracé 21" d="M1283.8,166.249c-.094-2.357-6.367,27.9,3.006,54.542s20.237,72.355-2.459,104.374-30.711,48.666-17.146,73.329c0,0-52.409-49.943-57.342-93.1S1285.3,203.756,1283.8,166.249Z" fill="none"/>
    <line id="Ligne_6" data-name="Ligne 6" y1="44.511" transform="translate(1214.797 280.168)" fill="none" stroke="#284b63" stroke-miterlimit="10" stroke-width="2"/>
    <line id="Ligne_7" data-name="Ligne 7" y1="65.443" transform="translate(1219.73 270.402)" fill="none" stroke="#284b63" stroke-miterlimit="10" stroke-width="2"/>
    <line id="Ligne_8" data-name="Ligne 8" y1="82.677" transform="translate(1224.662 262.263)" fill="none" stroke="#284b63" stroke-miterlimit="10" stroke-width="2"/>
    <line id="Ligne_9" data-name="Ligne 9" y1="97.968" transform="translate(1229.595 254.956)" fill="none" stroke="#284b63" stroke-miterlimit="10" stroke-width="2"/>
    <line id="Ligne_10" data-name="Ligne 10" y1="112.075" transform="translate(1234.527 248.112)" fill="none" stroke="#284b63" stroke-miterlimit="10" stroke-width="2"/>
    <line id="Ligne_11" data-name="Ligne 11" y1="125.35" transform="translate(1239.46 241.564)" fill="none" stroke="#284b63" stroke-miterlimit="10" stroke-width="2"/>
    <line id="Ligne_12" data-name="Ligne 12" y1="138.058" transform="translate(1244.393 235.177)" fill="none" stroke="#284b63" stroke-miterlimit="10" stroke-width="2"/>
    <line id="Ligne_13" data-name="Ligne 13" y1="150.328" transform="translate(1249.325 228.869)" fill="none" stroke="#284b63" stroke-miterlimit="10" stroke-width="2"/>
    <line id="Ligne_14" data-name="Ligne 14" y1="162.32" transform="translate(1254.258 222.555)" fill="none" stroke="#284b63" stroke-miterlimit="10" stroke-width="2"/>
    <line id="Ligne_15" data-name="Ligne 15" y1="174.152" transform="translate(1259.191 216.137)" fill="none" stroke="#284b63" stroke-miterlimit="10" stroke-width="2"/>
    <path id="Tracé_22" data-name="Tracé 22" d="M1298.618,236.49V421.272h-.809c-.275-.333-.542-.666-.809-.993V236.49Z" transform="translate(-33.686 -26.982)" fill="#284b63"/>
    <line id="Ligne_16" data-name="Ligne 16" y1="146.153" transform="translate(1269.056 202.51)" fill="none" stroke="#284b63" stroke-miterlimit="10" stroke-width="2"/>
    <line id="Ligne_17" data-name="Ligne 17" y1="145.611" transform="translate(1273.988 194.822)" fill="none" stroke="#284b63" stroke-miterlimit="10" stroke-width="2"/>
    <line id="Ligne_18" data-name="Ligne 18" y1="147.251" transform="translate(1278.921 185.709)" fill="none" stroke="#284b63" stroke-miterlimit="10" stroke-width="2"/>
    <line id="Ligne_19" data-name="Ligne 19" y1="115.805" transform="translate(1283.854 210.07)" fill="none" stroke="#284b63" stroke-miterlimit="10" stroke-width="2"/>
    <line id="Ligne_20" data-name="Ligne 20" y1="91.334" transform="translate(1288.786 226.637)" fill="none" stroke="#284b63" stroke-miterlimit="10" stroke-width="2"/>
    <line id="Ligne_21" data-name="Ligne 21" y1="61.738" transform="translate(1293.719 244.475)" fill="none" stroke="#284b63" stroke-miterlimit="10" stroke-width="2"/>
    <path id="Tracé_23" data-name="Tracé 23" d="M1281.077,432.476c.395.925.758,1.726,1.079,2.392q-.768-1.2-1.511-2.392c-.21-.333-.413-.666-.617-.993-51.219-82.923-17.924-136.88,0-156.968.419-.475.832-.925,1.233-1.363,4.526-4.877,7.812-7.387,8.04-7.442q-4.606,10.007-8.04,19.8-.638,1.8-1.233,3.588c-21.864,65.37-7.528,121.238,0,140.771C1280.4,430.829,1280.75,431.7,1281.077,432.476Z" transform="translate(-16.522 -38.185)" fill="#f5ede7"/>
    <g id="Groupe_42" data-name="Groupe 42" transform="translate(1263.92 394.956)">
      <path id="Tracé_25" data-name="Tracé 25" d="M1371.724,540.636l2.448.086c-8.1,1.585-18.38,6.123-33.628,9.008C1317.73,554.046,1298,538.04,1298,538.04l1.067.037,72.645,2.559Z" transform="translate(-1297.797 -537.559)" fill="none"/>
      <path id="Tracé_26" data-name="Tracé 26" d="M1431.812,542.392l-2.214-.074a.023.023,0,0,0-.019-.006l-4.5-.154h-.049l-3.49-.123c3.78-.746,7.084-.839,10.192.179Z" transform="translate(-1345.165 -538.871)" fill="#fff"/>
      <path id="Tracé_27" data-name="Tracé 27" d="M1384.589,541.379a13.835,13.835,0,0,0-2.485-.672.023.023,0,0,0-.018-.006,17.815,17.815,0,0,0-4.5-.154h-.049c-4.174.345-8.934,1.837-14.693,3.632a190.737,190.737,0,0,1-22.308,5.857,42.727,42.727,0,0,1-8,.74c-16.512,0-30.274-9.07-34.029-11.789a1.508,1.508,0,0,1-.2-.148,2.464,2.464,0,0,1-.635-.845l.2-.253.388-.481c.012.012.093.074.234.185.111.08.259.2.444.333,3.644,2.688,21.426,14.823,41.36,11.049A187.183,187.183,0,0,0,1362.472,543c3.336-1.042,6.345-1.985,9.113-2.664h.012c4.637-1.135,8.6-1.548,12.295-.487l.345.752.08.179Z" transform="translate(-1297.67 -537.26)" fill="#2e3192"/>
    </g>
    <path id="Tracé_28" data-name="Tracé 28" d="M1298.19,536.954a1.5,1.5,0,0,1-.2-.148,2.464,2.464,0,0,1-.635-.845,7.982,7.982,0,0,1-.413-4l1.233,2.6.006.851v.777Z" transform="translate(-33.438 -140.272)" fill="#2e3192"/>
  </g>
</svg>
