<svg xmlns="http://www.w3.org/2000/svg" width="89.035" height="61.559" viewBox="0 0 89.035 61.559">
  <g id="Groupe_234" data-name="Groupe 234" transform="translate(-150.483 -82.22)">
    <g id="Groupe_196" data-name="Groupe 196" transform="translate(170.578 92.085)">
      <path id="Icon_awesome-user-alt" data-name="Icon awesome-user-alt" d="M1006.326,154.628a13.738,13.738,0,1,0-13.737-13.738A13.737,13.737,0,0,0,1006.326,154.628Zm12.211,3.053h-5.256a16.607,16.607,0,0,1-13.91,0h-5.256A12.211,12.211,0,0,0,981.9,169.892v1.526A4.581,4.581,0,0,0,986.483,176h39.686a4.581,4.581,0,0,0,4.579-4.579v-1.526A12.211,12.211,0,0,0,1018.537,157.681Z" transform="translate(-981.904 -127.153)" fill="#fff"/>
    </g>
    <g id="Groupe_65" data-name="Groupe 65" transform="translate(150.483 82.221)">
      <path id="Tracé_44" data-name="Tracé 44" d="M597.833,102.907A44.2,44.2,0,0,0,566.52,90c-.14,0-.279,0-.421,0A44.682,44.682,0,0,0,522,134.348a44.1,44.1,0,0,0,3.392,17.207,1.482,1.482,0,0,0,.953-.623,1.462,1.462,0,0,0,.169-1.368,42.767,42.767,0,0,1,40-57.784h.273a42.911,42.911,0,0,1,42.466,42.386,42.448,42.448,0,0,1-2.739,15.409,1.461,1.461,0,0,0,.169,1.359,1.476,1.476,0,0,0,.959.623,44.464,44.464,0,0,0-9.809-48.652Z" transform="translate(-521.999 -90)"/>
      <g id="Groupe_64" data-name="Groupe 64" transform="translate(0 0)">
        <path id="Tracé_45" data-name="Tracé 45" d="M597.833,102.907A44.2,44.2,0,0,0,566.52,90c-.14,0-.279,0-.421,0A44.682,44.682,0,0,0,522,134.348a44.1,44.1,0,0,0,3.392,17.207,1.482,1.482,0,0,0,.953-.623,1.462,1.462,0,0,0,.169-1.368,42.767,42.767,0,0,1,40-57.784h.273a42.911,42.911,0,0,1,42.466,42.386,42.448,42.448,0,0,1-2.739,15.409,1.461,1.461,0,0,0,.169,1.359,1.476,1.476,0,0,0,.959.623,44.464,44.464,0,0,0-9.809-48.652Z" transform="translate(-521.999 -90)" fill="#fff"/>
      </g>
    </g>
  </g>
</svg>
