<svg xmlns="http://www.w3.org/2000/svg" width="88.11" height="61.557" viewBox="0 0 88.11 61.557">
  <g id="Groupe_65" data-name="Groupe 65" transform="translate(-521.999 -90)">
    <g id="GIIEeD" transform="translate(538.005 106.752)">
      <g id="Groupe_63" data-name="Groupe 63">
        <g id="Groupe_62" data-name="Groupe 62">
          <path id="Tracé_43" data-name="Tracé 43" d="M628.969,157.894c2.23,0,4.317-.011,6.4,0,2.872.018,4.2,1.93,3.213,4.646q-4.818,13.3-9.651,26.6c-.786,2.163-1.565,2.7-3.911,2.7q-22.3,0-44.592,0c-2.931,0-3.934-1.009-3.935-3.938q0-18.5,0-36.994c0-2.822,1.04-3.858,3.879-3.86,4.546,0,9.093-.027,13.639.025a5.1,5.1,0,0,1,2.221.576c2.592,1.355,5.113,2.85,7.715,4.184a6.321,6.321,0,0,0,2.718.693c6.033.06,12.066.031,18.1.031,3.292,0,4.174.883,4.2,4.2C628.972,157.058,628.969,157.363,628.969,157.894Zm-1.717,0c.533-3.27.094-3.81-2.966-3.811-6.077,0-12.155.02-18.232-.035a5.686,5.686,0,0,1-2.469-.641c-2.6-1.347-5.119-2.839-7.713-4.191a5.429,5.429,0,0,0-2.35-.606c-4.371-.057-8.744-.032-13.116-.024-2,0-2.35.371-2.351,2.392q0,14.563,0,29.126c0,2.755-.011,5.51.005,8.266.008,1.411.495,1.84,1.88,1.954a2.27,2.27,0,0,0,2.61-1.795c3.324-9.3,6.712-18.568,10.081-27.848.814-2.244,1.585-2.785,3.988-2.785q14.559,0,29.119,0Z" transform="translate(-576.497 -147.037)" fill="#fff0e5"/>
        </g>
      </g>
    </g>
    <path id="Tracé_44" data-name="Tracé 44" d="M597.045,102.773A43.736,43.736,0,0,0,566.057,90c-.138,0-.276,0-.417,0A44.217,44.217,0,0,0,522,133.887a43.645,43.645,0,0,0,3.357,17.029,1.467,1.467,0,0,0,.943-.617,1.447,1.447,0,0,0,.167-1.354,42.323,42.323,0,0,1,39.585-57.183h.27a42.465,42.465,0,0,1,42.025,41.946,42.007,42.007,0,0,1-2.711,15.249,1.445,1.445,0,0,0,.167,1.345,1.461,1.461,0,0,0,.949.617,44,44,0,0,0-9.707-48.146Z" transform="translate(0)"/>
    <g id="Groupe_64" data-name="Groupe 64" transform="translate(521.999 90)">
      <path id="Tracé_45" data-name="Tracé 45" d="M597.045,102.773A43.736,43.736,0,0,0,566.057,90c-.138,0-.276,0-.417,0A44.217,44.217,0,0,0,522,133.887a43.645,43.645,0,0,0,3.357,17.029,1.467,1.467,0,0,0,.943-.617,1.447,1.447,0,0,0,.167-1.354,42.323,42.323,0,0,1,39.585-57.183h.27a42.465,42.465,0,0,1,42.025,41.946,42.007,42.007,0,0,1-2.711,15.249,1.445,1.445,0,0,0,.167,1.345,1.461,1.461,0,0,0,.949.617,44,44,0,0,0-9.707-48.146Z" transform="translate(-521.999 -90)" fill="#fff"/>
    </g>
  </g>
</svg>
